<?xml version="1.0" standalone="no"?>
<!DOCTYPE svg PUBLIC "-//W3C//DTD SVG 20010904//EN"
 "http://www.w3.org/TR/2001/REC-SVG-20010904/DTD/svg10.dtd">
<svg version="1.0" xmlns="http://www.w3.org/2000/svg"
 width="118.000000pt" height="98.000000pt" viewBox="0 0 118.000000 98.000000"
 preserveAspectRatio="xMidYMid meet">

<g transform="translate(0.000000,98.000000) scale(0.100000,-0.100000)"
fill="#000000" stroke="none">
<path d="M500 970 c-203 -28 -375 -141 -450 -296 -106 -217 -9 -473 225 -596
105 -54 180 -72 315 -72 192 0 330 53 451 174 304 303 68 764 -406 793 -44 3
-105 2 -135 -3z m250 -26 c257 -60 441 -283 414 -501 l-6 -53 -54 0 -54 0 0
170 0 170 -250 0 -250 0 -39 35 c-37 34 -42 35 -115 35 l-76 0 0 -35 0 -35
-95 0 -95 0 0 -170 0 -170 -50 0 c-49 0 -49 0 -56 36 -31 168 87 373 268 465
130 66 315 87 458 53z m-240 -194 l37 -30 244 -2 244 -3 3 -23 4 -23 -219 1
c-273 2 -278 1 -270 -7 4 -3 115 -5 247 -4 l240 2 0 -160 0 -161 -247 -2 -248
-3 248 -2 c328 -4 324 -22 -6 -25 l-242 -2 250 -6 250 -6 -247 -2 c-335 -3
-335 -21 0 -24 l247 -3 -248 -2 -249 -3 -34 30 c-32 27 -41 30 -104 30 l-70 0
0 230 0 230 66 0 c58 0 71 -4 104 -30z m-190 -236 l0 -205 -37 3 c-48 4 -58
37 -18 58 23 12 36 50 17 50 -15 0 -40 -25 -45 -45 -4 -18 -5 -18 -6 2 -1 19
-26 43 -45 43 -17 0 -2 -39 19 -50 40 -21 30 -54 -17 -58 l-38 -3 0 205 0 206
85 0 85 0 0 -206z m185 -234 c18 -20 18 -20 -171 -18 l-189 2 168 3 c97 2 167
7 167 13 0 6 -70 11 -167 13 l-168 3 171 2 c160 2 172 1 189 -18z m-25 -156
c0 -21 -4 -33 -10 -29 -5 3 -10 15 -10 26 0 10 -6 19 -12 19 -9 0 -8 4 2 10
25 16 30 12 30 -26z m98 5 c4 -31 -20 -45 -46 -28 -16 10 -16 10 0 5 10 -3 20
-1 23 4 4 6 -2 10 -13 10 -24 0 -32 8 -25 27 3 8 16 13 32 11 20 -2 27 -9 29
-29z m72 22 c-25 -7 -25 -7 -2 -13 12 -3 22 -13 22 -21 0 -20 -39 -32 -54 -17
-8 9 -6 11 8 8 10 -1 21 3 23 10 3 7 -4 12 -16 12 -12 0 -21 6 -21 15 0 10 10
15 33 14 30 -1 30 -2 7 -8z m98 -3 c18 -18 15 -36 -8 -48 -15 -8 -25 -8 -38 0
-15 10 -14 10 5 5 12 -3 24 -1 28 5 4 6 -4 10 -19 10 -24 0 -35 18 -19 33 10
11 38 8 51 -5z"/>
<path d="M397 716 c-12 -29 4 -47 37 -44 26 2 31 7 31 28 0 21 -5 26 -31 28
-21 2 -33 -2 -37 -12z m48 -16 c0 -7 -5 -15 -10 -17 -6 -2 -11 6 -11 17 0 11
5 19 11 17 5 -2 10 -10 10 -17z"/>
<path d="M400 600 c0 -16 5 -30 10 -30 6 0 10 5 10 10 0 6 7 10 15 10 8 0 15
-4 15 -10 0 -5 5 -10 10 -10 6 0 10 14 10 30 0 17 -4 30 -10 30 -5 0 -10 -4
-10 -10 0 -5 -7 -10 -15 -10 -8 0 -15 5 -15 10 0 6 -4 10 -10 10 -5 0 -10 -13
-10 -30z"/>
<path d="M551 533 c1 -43 4 -67 6 -53 6 33 31 60 55 60 16 0 19 6 16 33 -3 29
-6 32 -40 35 l-38 3 1 -78z"/>
<path d="M647 603 c-4 -3 -7 -47 -6 -97 1 -85 2 -88 11 -46 11 48 32 80 55 80
8 0 13 12 13 35 0 33 -2 35 -33 35 -19 0 -37 -3 -40 -7z"/>
<path d="M741 508 l1 -103 12 58 c12 56 26 77 54 77 7 0 12 14 12 35 0 34 -1
35 -40 35 l-40 0 1 -102z"/>
<path d="M841 508 c1 -57 3 -92 5 -78 11 69 25 100 49 106 20 5 25 12 25 40 0
33 -1 34 -40 34 l-40 0 1 -102z"/>
<path d="M941 513 c1 -85 2 -92 9 -50 10 55 24 77 51 77 15 0 19 7 19 35 0 34
-1 35 -40 35 l-40 0 1 -97z"/>
<path d="M408 523 c6 -2 12 -16 12 -29 0 -15 6 -24 15 -24 9 0 15 9 15 24 0
13 6 27 13 29 6 3 -6 5 -28 5 -22 0 -34 -2 -27 -5z"/>
<path d="M400 395 c0 -33 2 -35 35 -35 19 0 35 5 35 10 0 6 -9 10 -20 10 -15
0 -20 7 -20 25 0 16 -6 25 -15 25 -10 0 -15 -11 -15 -35z"/>
<path d="M218 654 c-26 -51 -2 -89 38 -59 18 13 18 15 -1 53 l-20 41 -17 -35z"/>
<path d="M180 566 c0 -8 10 -22 23 -31 20 -14 22 -14 25 0 4 19 -15 45 -34 45
-8 0 -14 -6 -14 -14z"/>
<path d="M250 565 c-6 -8 -10 -21 -8 -30 3 -14 5 -14 26 0 24 18 30 45 8 45
-7 0 -19 -7 -26 -15z"/>
<path d="M180 522 c0 -13 30 -52 41 -52 17 0 9 39 -10 50 -23 12 -31 13 -31 2z"/>
<path d="M258 519 c-10 -5 -18 -19 -18 -30 0 -16 4 -19 23 -14 l22 7 -22 -17
c-13 -9 -23 -25 -23 -37 0 -19 2 -19 22 -6 18 12 23 25 23 62 1 49 0 51 -27
35z"/>
<path d="M180 461 c0 -10 11 -26 25 -35 24 -16 25 -16 25 7 0 16 -9 28 -25 35
-22 10 -25 9 -25 -7z"/>
<path d="M530 140 c0 -5 7 -10 15 -10 8 0 15 5 15 10 0 6 -7 10 -15 10 -8 0
-15 -4 -15 -10z"/>
<path d="M705 140 c-3 -5 1 -10 9 -10 9 0 16 5 16 10 0 6 -4 10 -9 10 -6 0
-13 -4 -16 -10z"/>
</g>
</svg>
